<mxfile host="app.diagrams.net" modified="2024-03-12T22:58:22.962Z" agent="Mozilla/5.0 (Windows NT 10.0; Win64; x64) AppleWebKit/537.36 (KHTML, like Gecko) Chrome/120.0.0.0 Safari/537.36" etag="60DIxe4p7AqEbuX9dYRY" version="24.0.5" type="github">
  <diagram name="Página-1" id="j0P_AIAlUdAqtc0bGUuy">
    <mxGraphModel dx="892" dy="775" grid="1" gridSize="10" guides="1" tooltips="1" connect="1" arrows="1" fold="1" page="1" pageScale="1" pageWidth="827" pageHeight="1169" math="0" shadow="0">
      <root>
        <mxCell id="0" />
        <mxCell id="1" parent="0" />
        <mxCell id="E04y_9u0_HgmXFSWiscD-12" value="" style="rounded=0;whiteSpace=wrap;html=1;" vertex="1" parent="1">
          <mxGeometry x="450" y="80" width="120" height="60" as="geometry" />
        </mxCell>
        <mxCell id="E04y_9u0_HgmXFSWiscD-13" value="HTTP" style="text;html=1;align=center;verticalAlign=middle;whiteSpace=wrap;rounded=0;fillColor=#dae8fc;strokeColor=#6c8ebf;" vertex="1" parent="1">
          <mxGeometry x="480" y="95" width="60" height="30" as="geometry" />
        </mxCell>
        <mxCell id="E04y_9u0_HgmXFSWiscD-15" value="" style="rounded=0;whiteSpace=wrap;html=1;" vertex="1" parent="1">
          <mxGeometry x="580" y="140" width="220" height="340" as="geometry" />
        </mxCell>
        <mxCell id="E04y_9u0_HgmXFSWiscD-16" value="FRONTEND" style="text;html=1;align=center;verticalAlign=middle;whiteSpace=wrap;rounded=0;fillColor=#dae8fc;strokeColor=#6c8ebf;" vertex="1" parent="1">
          <mxGeometry x="179.67000000000002" y="95" width="86.88" height="30" as="geometry" />
        </mxCell>
        <mxCell id="E04y_9u0_HgmXFSWiscD-17" value="BACKEND" style="text;html=1;align=center;verticalAlign=middle;whiteSpace=wrap;rounded=0;fillColor=#dae8fc;strokeColor=#6c8ebf;" vertex="1" parent="1">
          <mxGeometry x="646.56" y="95" width="86.88" height="30" as="geometry" />
        </mxCell>
        <mxCell id="E04y_9u0_HgmXFSWiscD-18" value="SERVIDOR" style="text;html=1;align=center;verticalAlign=middle;whiteSpace=wrap;rounded=0;" vertex="1" parent="1">
          <mxGeometry x="640" y="141" width="100" height="30" as="geometry" />
        </mxCell>
        <mxCell id="E04y_9u0_HgmXFSWiscD-24" value="" style="rounded=0;whiteSpace=wrap;html=1;" vertex="1" parent="1">
          <mxGeometry x="20" y="140" width="410" height="250" as="geometry" />
        </mxCell>
        <mxCell id="E04y_9u0_HgmXFSWiscD-26" value="" style="rounded=1;whiteSpace=wrap;html=1;fillColor=#bac8d3;strokeColor=#23445d;" vertex="1" parent="1">
          <mxGeometry x="40" y="171" width="280" height="20" as="geometry" />
        </mxCell>
        <mxCell id="E04y_9u0_HgmXFSWiscD-27" value="" style="rounded=0;whiteSpace=wrap;html=1;fillColor=#d5e8d4;strokeColor=#82b366;" vertex="1" parent="1">
          <mxGeometry x="324" y="171" width="86" height="20" as="geometry" />
        </mxCell>
        <mxCell id="E04y_9u0_HgmXFSWiscD-28" value="Adicionar" style="text;html=1;align=center;verticalAlign=middle;whiteSpace=wrap;rounded=0;" vertex="1" parent="1">
          <mxGeometry x="332" y="166" width="70" height="30" as="geometry" />
        </mxCell>
        <mxCell id="E04y_9u0_HgmXFSWiscD-31" value="Descrição" style="text;html=1;align=center;verticalAlign=middle;whiteSpace=wrap;rounded=0;" vertex="1" parent="1">
          <mxGeometry x="87" y="210" width="60" height="30" as="geometry" />
        </mxCell>
        <mxCell id="E04y_9u0_HgmXFSWiscD-32" value="Editar" style="text;html=1;align=center;verticalAlign=middle;whiteSpace=wrap;rounded=0;" vertex="1" parent="1">
          <mxGeometry x="240" y="210" width="60" height="30" as="geometry" />
        </mxCell>
        <mxCell id="E04y_9u0_HgmXFSWiscD-33" value="Deletar" style="text;html=1;align=center;verticalAlign=middle;whiteSpace=wrap;rounded=0;" vertex="1" parent="1">
          <mxGeometry x="322" y="210" width="60" height="30" as="geometry" />
        </mxCell>
        <mxCell id="E04y_9u0_HgmXFSWiscD-34" value="Item 01" style="text;html=1;align=center;verticalAlign=middle;whiteSpace=wrap;rounded=0;" vertex="1" parent="1">
          <mxGeometry x="86" y="258" width="60" height="30" as="geometry" />
        </mxCell>
        <mxCell id="E04y_9u0_HgmXFSWiscD-38" value="" style="rounded=0;whiteSpace=wrap;html=1;fillColor=#ffcccc;strokeColor=#36393d;" vertex="1" parent="1">
          <mxGeometry x="320" y="260.5" width="58" height="27" as="geometry" />
        </mxCell>
        <mxCell id="E04y_9u0_HgmXFSWiscD-39" value="Deletar" style="text;html=1;align=center;verticalAlign=middle;whiteSpace=wrap;rounded=0;fillColor=#e6d0de;gradientColor=#d5739d;strokeColor=#996185;" vertex="1" parent="1">
          <mxGeometry x="319" y="259" width="60" height="30" as="geometry" />
        </mxCell>
        <mxCell id="E04y_9u0_HgmXFSWiscD-41" value="" style="rounded=0;whiteSpace=wrap;html=1;fillColor=#ffcd28;gradientColor=#ffa500;strokeColor=#d79b00;" vertex="1" parent="1">
          <mxGeometry x="242" y="259" width="58" height="31" as="geometry" />
        </mxCell>
        <mxCell id="E04y_9u0_HgmXFSWiscD-42" value="Editar" style="text;html=1;align=center;verticalAlign=middle;whiteSpace=wrap;rounded=0;" vertex="1" parent="1">
          <mxGeometry x="245" y="259" width="50" height="31" as="geometry" />
        </mxCell>
        <mxCell id="E04y_9u0_HgmXFSWiscD-44" value="Adiciona o item" style="rounded=0;whiteSpace=wrap;html=1;" vertex="1" parent="1">
          <mxGeometry x="630" y="180" width="120" height="60" as="geometry" />
        </mxCell>
        <mxCell id="E04y_9u0_HgmXFSWiscD-45" value="" style="rounded=0;whiteSpace=wrap;html=1;" vertex="1" parent="1">
          <mxGeometry x="630" y="250" width="120" height="60" as="geometry" />
        </mxCell>
        <mxCell id="E04y_9u0_HgmXFSWiscD-46" value="Edita o item" style="text;html=1;align=center;verticalAlign=middle;whiteSpace=wrap;rounded=0;" vertex="1" parent="1">
          <mxGeometry x="650" y="265" width="80" height="30" as="geometry" />
        </mxCell>
        <mxCell id="E04y_9u0_HgmXFSWiscD-47" value="" style="rounded=0;whiteSpace=wrap;html=1;" vertex="1" parent="1">
          <mxGeometry x="630" y="320" width="120" height="60" as="geometry" />
        </mxCell>
        <mxCell id="E04y_9u0_HgmXFSWiscD-48" value="" style="rounded=0;whiteSpace=wrap;html=1;" vertex="1" parent="1">
          <mxGeometry x="630" y="390" width="120" height="60" as="geometry" />
        </mxCell>
        <mxCell id="E04y_9u0_HgmXFSWiscD-49" value="Deleta o item" style="text;html=1;align=center;verticalAlign=middle;whiteSpace=wrap;rounded=0;" vertex="1" parent="1">
          <mxGeometry x="650" y="335" width="80" height="30" as="geometry" />
        </mxCell>
        <mxCell id="E04y_9u0_HgmXFSWiscD-50" value="Exibe todos os itens" style="text;html=1;align=center;verticalAlign=middle;whiteSpace=wrap;rounded=0;" vertex="1" parent="1">
          <mxGeometry x="650" y="405" width="80" height="30" as="geometry" />
        </mxCell>
        <mxCell id="E04y_9u0_HgmXFSWiscD-58" value="" style="endArrow=classic;startArrow=classic;html=1;rounded=0;" edge="1" parent="1">
          <mxGeometry width="50" height="50" relative="1" as="geometry">
            <mxPoint x="131.5" y="290" as="sourcePoint" />
            <mxPoint x="620" y="420" as="targetPoint" />
          </mxGeometry>
        </mxCell>
        <mxCell id="E04y_9u0_HgmXFSWiscD-59" value="" style="endArrow=classic;startArrow=classic;html=1;rounded=0;" edge="1" parent="1">
          <mxGeometry width="50" height="50" relative="1" as="geometry">
            <mxPoint x="413.5" y="180" as="sourcePoint" />
            <mxPoint x="621.5" y="215" as="targetPoint" />
          </mxGeometry>
        </mxCell>
        <mxCell id="E04y_9u0_HgmXFSWiscD-60" value="" style="endArrow=classic;startArrow=classic;html=1;rounded=0;" edge="1" parent="1">
          <mxGeometry width="50" height="50" relative="1" as="geometry">
            <mxPoint x="280" y="255" as="sourcePoint" />
            <mxPoint x="620" y="280" as="targetPoint" />
            <Array as="points">
              <mxPoint x="318" y="240" />
              <mxPoint x="390" y="240" />
            </Array>
          </mxGeometry>
        </mxCell>
        <mxCell id="E04y_9u0_HgmXFSWiscD-61" value="" style="endArrow=classic;startArrow=classic;html=1;rounded=0;" edge="1" parent="1">
          <mxGeometry width="50" height="50" relative="1" as="geometry">
            <mxPoint x="360" y="300" as="sourcePoint" />
            <mxPoint x="620" y="345" as="targetPoint" />
            <Array as="points">
              <mxPoint x="490" y="330" />
            </Array>
          </mxGeometry>
        </mxCell>
        <mxCell id="E04y_9u0_HgmXFSWiscD-62" value="POST" style="text;html=1;align=center;verticalAlign=middle;whiteSpace=wrap;rounded=0;fillColor=#dae8fc;strokeColor=#6c8ebf;" vertex="1" parent="1">
          <mxGeometry x="480" y="180" width="60" height="30" as="geometry" />
        </mxCell>
        <mxCell id="E04y_9u0_HgmXFSWiscD-67" value="PUT" style="text;html=1;align=center;verticalAlign=middle;whiteSpace=wrap;rounded=0;fillColor=#dae8fc;strokeColor=#6c8ebf;" vertex="1" parent="1">
          <mxGeometry x="480" y="247" width="60" height="30" as="geometry" />
        </mxCell>
        <mxCell id="E04y_9u0_HgmXFSWiscD-68" value="DELET" style="text;html=1;align=center;verticalAlign=middle;whiteSpace=wrap;rounded=0;fillColor=#dae8fc;strokeColor=#6c8ebf;" vertex="1" parent="1">
          <mxGeometry x="481" y="315" width="60" height="30" as="geometry" />
        </mxCell>
        <mxCell id="E04y_9u0_HgmXFSWiscD-69" value="GET" style="text;html=1;align=center;verticalAlign=middle;whiteSpace=wrap;rounded=0;fillColor=#dae8fc;strokeColor=#6c8ebf;" vertex="1" parent="1">
          <mxGeometry x="481" y="375" width="60" height="30" as="geometry" />
        </mxCell>
        <mxCell id="E04y_9u0_HgmXFSWiscD-70" value="" style="shape=flexArrow;endArrow=classic;startArrow=classic;html=1;rounded=0;endWidth=34;endSize=6;startWidth=34;startSize=6;" edge="1" parent="1">
          <mxGeometry width="100" height="100" relative="1" as="geometry">
            <mxPoint x="689.5" y="546" as="sourcePoint" />
            <mxPoint x="689.5" y="486" as="targetPoint" />
          </mxGeometry>
        </mxCell>
        <mxCell id="E04y_9u0_HgmXFSWiscD-71" value="" style="shape=cylinder3;whiteSpace=wrap;html=1;boundedLbl=1;backgroundOutline=1;size=15;" vertex="1" parent="1">
          <mxGeometry x="610" y="550" width="160" height="160" as="geometry" />
        </mxCell>
        <mxCell id="E04y_9u0_HgmXFSWiscD-73" value="&lt;span style=&quot;color: rgba(0, 0, 0, 0); font-family: monospace; font-size: 0px; text-align: start; text-wrap: nowrap;&quot;&gt;%3CmxGraphModel%3E%3Croot%3E%3CmxCell%20id%3D%220%22%2F%3E%3CmxCell%20id%3D%221%22%20parent%3D%220%22%2F%3E%3CmxCell%20id%3D%222%22%20value%3D%22DATABASE%26lt%3Bbr%26gt%3B(PostgreSQL)%22%20style%3D%22text%3Bhtml%3D1%3Balign%3Dcenter%3BverticalAlign%3Dmiddle%3BwhiteSpace%3Dwrap%3Brounded%3D0%3B%22%20vertex%3D%221%22%20parent%3D%221%22%3E%3CmxGeometry%20x%3D%22660%22%20y%3D%22615%22%20width%3D%2260%22%20height%3D%2230%22%20as%3D%22geometry%22%2F%3E%3C%2FmxCell%3E%3C%2Froot%3E%3C%2FmxGraphModel%3E&lt;/span&gt;" style="text;html=1;align=center;verticalAlign=middle;whiteSpace=wrap;rounded=0;fillColor=#dae8fc;strokeColor=#6c8ebf;" vertex="1" parent="1">
          <mxGeometry x="646.56" y="590" width="86.88" height="30" as="geometry" />
        </mxCell>
        <mxCell id="E04y_9u0_HgmXFSWiscD-74" value="DATABASE" style="text;html=1;align=center;verticalAlign=middle;whiteSpace=wrap;rounded=0;" vertex="1" parent="1">
          <mxGeometry x="660" y="591" width="60" height="30" as="geometry" />
        </mxCell>
        <mxCell id="E04y_9u0_HgmXFSWiscD-75" value="(PostegreSQL)" style="text;html=1;align=center;verticalAlign=middle;whiteSpace=wrap;rounded=0;" vertex="1" parent="1">
          <mxGeometry x="660" y="630" width="60" height="30" as="geometry" />
        </mxCell>
        <mxCell id="E04y_9u0_HgmXFSWiscD-76" value="&lt;b&gt;&lt;font style=&quot;font-size: 19px;&quot;&gt;DIAGRAMA&amp;nbsp;&lt;/font&gt;&lt;/b&gt;&lt;div&gt;C.R.U.D - LISTA DE TAREFAS&lt;/div&gt;" style="text;html=1;align=center;verticalAlign=middle;whiteSpace=wrap;rounded=0;" vertex="1" parent="1">
          <mxGeometry x="220" y="20" width="410" height="30" as="geometry" />
        </mxCell>
        <mxCell id="E04y_9u0_HgmXFSWiscD-77" value="&lt;font style=&quot;font-size: 15px;&quot;&gt;Jedir de O. Pinho Junior&lt;br&gt;(JUNIOR PINHO DEV)&lt;/font&gt;" style="text;html=1;align=center;verticalAlign=middle;whiteSpace=wrap;rounded=0;" vertex="1" parent="1">
          <mxGeometry x="130" y="645" width="210" height="30" as="geometry" />
        </mxCell>
      </root>
    </mxGraphModel>
  </diagram>
</mxfile>
